<svg aria-hidden="true" style="position:absolute;width:0;height:0" xmlns="http://www.w3.org/2000/svg" overflow="hidden"><defs><symbol id="icon-button" viewBox="0 0 32 32"><path fill="var(--color1, #faf298)" d="M9.159 10.695l6.319 4.359c.12.08.24.2.32.32.36.52.24 1.24-.28 1.6l-6.359 4.359c-1 .68-6.239 4.559-6.999 4.559-.64 0-1.16-.52-1.16-1.16V7.295c0-.24.08-.44.2-.64.36-.52 1.08-.64 1.6-.28l6.359 4.319z"/><path fill="var(--color1, #faf298)" d="M24.156 10.695l6.319 4.359c.12.08.24.2.32.32.36.52.24 1.24-.28 1.6l-6.359 4.359-6.239 4.319c-.2.16-.44.24-.72.24-.64 0-1.16-.52-1.16-1.16V7.295c0-.24.08-.44.2-.64.36-.52 1.08-.64 1.6-.28l6.319 4.319z"/><path fill="var(--color2, #5f717f)" d="M31.595 14.774c-.08-.12-.16-.24-.28-.32s-.2-.2-.32-.28l-6.239-4.319-6.359-4.359c-.48-.36-1.08-.44-1.64-.36s-1.04.4-1.4.92c-.12.2-.24.4-.28.6-.04.16-.08.32-.08.48v6.399L9.718 9.896 3.399 5.497c-.48-.36-1.08-.44-1.64-.36s-1.04.4-1.4.88c-.12.2-.24.4-.28.6-.04.16-.08.32-.08.48v17.637c0 .56.2 1.08.56 1.44l.08.08c.4.4.92.64 1.52.64.92 0 4.679-2.68 6.639-4.079.4-.28.72-.52.92-.68l5.279-3.639v6.239c0 .6.24 1.16.64 1.52.4.4.92.64 1.52.64.24 0 .48-.04.72-.12s.44-.2.6-.32l6.239-4.279 6.319-4.359c.48-.36.8-.84.92-1.4s0-1.16-.36-1.64zm-16.717 1.32l-6.319 4.399c-.16.12-.52.36-.96.68-1.76 1.28-5.159 3.719-5.439 3.719-.04 0-.08 0-.08-.04V7.255s0-.04.04-.04c0 0 .04-.04.08-.04h.08c.04.04.08.04.08.04l6.239 4.319 6.319 4.359c0 .04.04.08 0 .08 0 .08 0 .12-.04.12zm15.037 0l-6.319 4.399-6.279 4.279c-.04 0-.04.04-.08.04h-.08c-.04 0-.08 0-.08-.04-.04-.04-.04-.04-.04-.08V7.215c0-.04.04-.04.08-.04h.08l6.399 4.359 6.319 4.359c0 .04.04.04 0 .08.04.08 0 .12 0 .12z"/></symbol><symbol id="icon-arrow" viewBox="0 0 32 32"><path d="M12.234 22.389a.913.913 0 00-1.283.183 7.938 7.938 0 01-6.387 3.183H2.039c-.509 0-.916.407-.916.916s.407.916.916.916h2.532c1.568 0 3.068-.36 4.452-1.066a9.827 9.827 0 003.394-2.851.92.92 0 00-.183-1.283zM14.82 9.507a.926.926 0 001.289-.163 7.938 7.938 0 016.312-3.095h5.328l-2.844 2.844a.913.913 0 000 1.296c.176.176.414.271.645.271s.468-.088.645-.271l4.412-4.412a.913.913 0 000-1.296L26.195.269c-.36-.36-.937-.36-1.296 0s-.36.937 0 1.296l2.844 2.844h-5.328a9.766 9.766 0 00-7.765 3.808.931.931 0 00.17 1.29z"/><path d="M26.202 21.616c-.36-.36-.937-.36-1.296 0s-.36.937 0 1.296l2.844 2.844h-5.328c-4.405 0-7.989-3.584-7.989-7.989v-3.529c0-5.416-4.405-9.821-9.821-9.821H2.08c-.509 0-.916.407-.916.916s.407.916.916.916h2.532c4.405 0 7.989 3.584 7.989 7.989v3.529c0 5.416 4.405 9.821 9.821 9.821h5.328l-2.844 2.844a.913.913 0 000 1.296c.176.176.414.271.645.271s.468-.088.645-.271l4.412-4.412a.913.913 0 000-1.296l-4.405-4.405z"/></symbol><symbol id="icon-call" viewBox="0 0 32 32"><path d="M29.432 21.004c-1.959 0-3.883-.306-5.706-.909-.909-.31-1.944-.069-2.537.535l-3.598 2.716c-4.173-2.227-6.743-4.797-8.94-8.938l2.636-3.504a2.585 2.585 0 00.636-2.621 18.192 18.192 0 01-.912-5.715A2.57 2.57 0 008.443 0H2.566A2.57 2.57 0 00-.002 2.568C-.002 18.797 13.201 32 29.43 32a2.57 2.57 0 002.568-2.568v-5.86a2.57 2.57 0 00-2.568-2.568zm.79 8.428a.79.79 0 01-.79.79c-15.249 0-27.654-12.405-27.654-27.654a.79.79 0 01.79-.79h5.877a.79.79 0 01.79.79c0 2.15.338 4.26.998 6.26.092.295.017.601-.281.912l-3.056 4.047a.884.884 0 00-.081.943l-.002-.005c2.494 4.902 5.524 7.932 10.461 10.462.3.157.668.124.941-.082l4.14-3.136a.785.785 0 01.811-.186l-.006-.002a19.959 19.959 0 006.273 1.002.79.79 0 01.79.79v5.86z"/></symbol><symbol id="icon-cart" viewBox="0 0 32 32"><path d="M10.31 20.688h17.003a.938.938 0 00.9-.673l.002-.007 3.75-13.125a.933.933 0 00-.155-.825l.002.002a.937.937 0 00-.749-.373H8.148l-.67-3.016a.94.94 0 00-.915-.734H.938a.938.938 0 000 1.876h4.873l3.385 15.232a2.817 2.817 0 00-1.695 2.581 2.816 2.816 0 002.813 2.813h17a.938.938 0 000-1.876h-17a.937.937 0 01-.003-1.875zM29.82 7.563l-3.214 11.25H11.065l-2.5-11.25zM9.375 27.25c0 1.551 1.262 2.813 2.813 2.813s2.813-1.262 2.813-2.813-1.262-2.813-2.813-2.813-2.813 1.262-2.813 2.813zm2.813-.937c.517 0 .938.421.938.938s-.421.938-.938.938-.938-.421-.938-.938.421-.938.938-.938zm10.437.937c0 1.551 1.262 2.813 2.813 2.813s2.813-1.262 2.813-2.813-1.262-2.813-2.813-2.813-2.813 1.262-2.813 2.813zm2.813-.937c.517 0 .938.421.938.938s-.421.938-.938.938-.938-.421-.938-.938.421-.938.938-.938z"/></symbol><symbol id="icon-email" viewBox="0 0 32 32"><path d="M29.188 3.813H2.813A2.818 2.818 0 000 6.626v18.75a2.818 2.818 0 002.813 2.813h26.375a2.818 2.818 0 002.813-2.813V6.626a2.818 2.818 0 00-2.813-2.813zm-.389 1.875L16.06 18.428 3.21 5.688h25.589zM1.875 24.987V7.005l9.03 8.953-9.03 9.03zm1.326 1.326l9.036-9.036 3.166 3.139a.938.938 0 001.323-.003l3.087-3.087 8.987 8.987H3.202zm26.924-1.326L21.138 16l8.987-8.987v17.973z"/></symbol><symbol id="icon-like" viewBox="0 0 32 32"><path d="M16 30.22c-.456 0-.895-.165-1.237-.465a374.562 374.562 0 00-3.639-3.13l-.006-.005c-3.224-2.747-6.008-5.12-7.945-7.457-2.165-2.613-3.174-5.09-3.174-7.796 0-2.629.902-5.055 2.539-6.831C4.195 2.739 6.467 1.75 8.939 1.75c1.847 0 3.539.584 5.028 1.736A10.308 10.308 0 0116 5.608c.6-.83 1.281-1.541 2.033-2.123 1.489-1.152 3.181-1.736 5.028-1.736 2.471 0 4.744.99 6.401 2.786C31.099 6.311 32 8.736 32 11.366c0 2.706-1.008 5.184-3.174 7.796-1.937 2.337-4.721 4.71-7.944 7.457-1.102.939-2.35 2.002-3.645 3.136a1.87 1.87 0 01-1.236.464H16zM8.939 3.624c-1.942 0-3.725.775-5.023 2.182-1.317 1.428-2.042 3.403-2.042 5.56 0 2.276.846 4.312 2.743 6.6 1.833 2.212 4.56 4.536 7.717 7.227l.006.005c1.104.941 2.355 2.007 3.657 3.146a430.966 430.966 0 013.669-3.151c3.157-2.691 5.884-5.014 7.717-7.226 1.896-2.289 2.742-4.324 2.742-6.6 0-2.157-.725-4.132-2.042-5.56-1.297-1.407-3.081-2.182-5.023-2.182-1.422 0-2.728.452-3.881 1.344-1.028.795-1.743 1.8-2.163 2.503-.216.362-.596.577-1.016.577s-.801-.216-1.016-.577c-.419-.703-1.135-1.708-2.163-2.503-1.153-.892-2.459-1.344-3.881-1.344z"/></symbol><symbol id="icon-moneyback" viewBox="0 0 32 32"><path d="M28.118 6.479L16.091.07a.594.594 0 00-.573.005l.003-.002L3.827 6.481a.6.6 0 00-.311.525v8.371a17.334 17.334 0 0010.389 15.864l1.623.707a.588.588 0 00.48-.001l-.004.002 1.829-.79a17.3 17.3 0 0010.601-15.948V7.006a.598.598 0 00-.314-.527l-.003-.002zm-.881 8.734a16.102 16.102 0 01-9.872 14.846l-.004.002-1.593.688-1.384-.604a16.134 16.134 0 01-9.671-14.766V7.362l11.1-6.083 11.424 6.088z"/><path d="M11.395 14.991a.597.597 0 00-.845-.066l.001-.001a.596.596 0 00-.066.845l-.001-.001 3.163 3.704a.596.596 0 00.834.075l-.001.001 7.366-5.993a.6.6 0 10-.757-.928l.001-.001-6.913 5.623z"/></symbol><symbol id="icon-settings" viewBox="0 0 32 32"><path d="M17.004 32h-2.008a2.95 2.95 0 01-2.946-2.946v-.679a12.862 12.862 0 01-2.077-.867l.071.034-.482.482a2.947 2.947 0 01-4.167 0l-1.419-1.419a2.947 2.947 0 010-4.167l.481-.481a12.356 12.356 0 01-.807-1.915l-.026-.091h-.679a2.95 2.95 0 01-2.946-2.946v-2.008a2.95 2.95 0 012.946-2.946h.679c.252-.78.534-1.444.867-2.077l-.034.071-.482-.481a2.947 2.947 0 010-4.167l1.42-1.42a2.947 2.947 0 014.167 0l.481.481a12.356 12.356 0 011.915-.807l.091-.026v-.679A2.95 2.95 0 0114.995 0h2.008a2.95 2.95 0 012.946 2.946v.679c.78.252 1.444.534 2.077.867l-.071-.034.482-.482a2.947 2.947 0 014.167 0l1.419 1.419a2.947 2.947 0 010 4.167l-.481.481c.299.562.581 1.226.807 1.915l.026.091h.679A2.95 2.95 0 0132 14.995v2.008a2.95 2.95 0 01-2.946 2.946h-.679c-.252.78-.534 1.444-.867 2.077l.034-.071.482.482a2.947 2.947 0 010 4.167l-1.42 1.419a2.945 2.945 0 01-4.166 0l-.481-.481c-.562.299-1.226.581-1.915.807l-.091.026v.679A2.95 2.95 0 0117.005 32zm-6.647-6.427c.824.497 1.777.904 2.787 1.172l.077.017a.939.939 0 01.703.908v1.384c0 .59.48 1.071 1.071 1.071h2.008c.59 0 1.071-.48 1.071-1.071V27.67c0-.434.296-.8.697-.906l.007-.001a11.022 11.022 0 002.915-1.217l-.05.028a.934.934 0 011.14.144l.98.981a1.07 1.07 0 001.514 0l1.42-1.42a1.07 1.07 0 000-1.514l-.981-.981a.934.934 0 01-.142-1.144l-.002.004c.497-.824.904-1.777 1.172-2.787l.017-.077a.939.939 0 01.908-.703h1.384c.59 0 1.071-.48 1.071-1.071v-2.008c0-.59-.48-1.071-1.071-1.071h-1.384a.938.938 0 01-.906-.697l-.001-.007a11.022 11.022 0 00-1.217-2.915l.028.05a.934.934 0 01.144-1.14l.981-.981a1.07 1.07 0 000-1.514l-1.42-1.42a1.07 1.07 0 00-1.514 0l-.981.981a.934.934 0 01-1.145.142l.004.002a10.808 10.808 0 00-2.787-1.172l-.077-.017a.939.939 0 01-.703-.908V2.947c0-.59-.48-1.071-1.071-1.071h-2.008c-.59 0-1.071.48-1.071 1.071v1.384c0 .434-.296.8-.697.906l-.007.001c-1.087.285-2.04.692-2.915 1.217l.05-.028a.934.934 0 01-1.14-.144l-.98-.981a1.07 1.07 0 00-1.514 0l-1.42 1.42a1.07 1.07 0 000 1.514l.981.981a.934.934 0 01.142 1.144l.002-.004a10.808 10.808 0 00-1.172 2.787l-.017.077a.939.939 0 01-.908.703H2.946c-.59 0-1.071.48-1.071 1.071v2.008c0 .59.48 1.071 1.071 1.071H4.33c.434 0 .8.296.906.697l.001.007c.285 1.087.692 2.04 1.217 2.915l-.028-.05a.934.934 0 01-.144 1.14l-.981.981a1.07 1.07 0 000 1.514l1.42 1.42a1.07 1.07 0 001.514 0l.981-.981c.223-.223.687-.412 1.14-.144z"/><path d="M16 22.962c-3.839 0-6.963-3.123-6.963-6.963S12.16 9.036 16 9.036s6.962 3.123 6.962 6.963-3.123 6.963-6.963 6.963zm0-12.05c-2.805 0-5.088 2.282-5.088 5.088s2.282 5.087 5.088 5.087 5.087-2.282 5.087-5.088-2.282-5.088-5.088-5.088z"/></symbol><symbol id="icon-time" viewBox="0 0 32 32"><path d="M16 0C7.178 0 0 7.178 0 16s7.178 16 16 16 16-7.178 16-16S24.822 0 16 0zm0 30C8.28 30 2 23.72 2 16S8.28 2 16 2s14 6.28 14 14-6.28 14-14 14z"/><path d="M17 6h-2v10.414l6.293 6.293 1.414-1.414L17 15.586z"/></symbol><symbol id="icon-world-1" viewBox="0 0 32 32"><path d="M16.006.003a15.997 15.997 0 00-14.708 9.7l-.199.066.077.232c-3.318 8.183.626 17.506 8.809 20.823 1.777.741 3.842 1.172 6.007 1.172h.009c8.835.001 15.998-7.16 15.999-15.994S24.84.004 16.006.003zm12.547 24.062l-.821-.821v-1.918a.528.528 0 00-.055-.235l.001.003-2.08-4.153v-2.007a.53.53 0 00-.235-.442l-.002-.001-1.6-1.066a.53.53 0 00-.43-.073l.004-.001-1.959.489-3.291-1.412-.453-3.172 1.255-1.254h2.693l.906 1.362c.081.12.207.204.353.229h.003l3.199.533a.518.518 0 00.259-.022l-.004.001 2.947-.982a14.88 14.88 0 01-.692 14.941zM26.354 5.258l-.867.578-2.417-.484-1.568-.522a.503.503 0 00-.302-.011l.004-.001-1.983.495-.869-.29.644-1.288H20.8a.538.538 0 00.241-.057l-.003.001 1.845-.922a15.107 15.107 0 013.475 2.504l-.004-.004zM10.161 2.26l1.28.853a.53.53 0 00.205.082h.003l2.584.431-.252.754-1.346.45a.534.534 0 00-.287.229l-.001.002-1.531 2.552-2.46 1.476-3.626.518a.535.535 0 00-.459.527v1.6c0 .147.06.28.156.377l.91.91v.916l-2.218-1.479-.805-2.414c1.562-3.509 4.323-6.249 7.75-7.746l.097-.038zM8.642 19.743l-2.41-.483-.896-1.787V16.22l1.987-1.987.735 1.471a.534.534 0 00.477.295h3.431l1.444 2.407a.534.534 0 00.457.259h1.482l-.373 1.87-2.019 2.019a.53.53 0 00-.157.377v1.333l-1.92 1.44a.533.533 0 00-.213.427v1.926l-.663-.22-.936-2.342v-5.23a.533.533 0 00-.423-.522l-.003-.001zM7.04 27.94a14.926 14.926 0 01-5.318-16.3l.443 1.329a.536.536 0 00.208.274l.002.001 2.658 1.772-.606.607a.533.533 0 00-.156.377v1.601c0 .087.021.169.057.241l-.001-.003 1.066 2.133a.538.538 0 00.37.284l.003.001 2.24.447v4.895c0 .071.014.139.039.201l-.001-.004 1.066 2.666a.535.535 0 00.323.307l.004.001 1.6.533a.533.533 0 00.699-.505v-2.399l1.92-1.44a.533.533 0 00.213-.427v-1.379l1.977-1.977a.53.53 0 00.145-.269l.001-.003.533-2.666a.533.533 0 00-.523-.638h-1.831l-1.444-2.408a.534.534 0 00-.457-.259H8.867l-.916-1.838a.534.534 0 00-.389-.287h-.003a.52.52 0 00-.462.149l-.692.689V12.8c0-.147-.06-.28-.156-.377l-.91-.91v-.917l3.275-.468a.53.53 0 00.201-.072l-.002.001 2.666-1.6a.537.537 0 00.181-.18l.001-.002 1.498-2.497 1.412-.471a.532.532 0 00.336-.333l.001-.004.533-1.6a.533.533 0 00-.415-.692h-.003l-3.086-.515-.542-.362c1.376-.464 2.961-.731 4.608-.731 2.036 0 3.977.409 5.745 1.149l-.098-.036-.974.486h-2.01a.535.535 0 00-.476.292l-.001.003-1.066 2.133a.534.534 0 00.305.743l.004.001 1.6.533a.521.521 0 00.298.012l1.983-.495 1.453.484a.464.464 0 00.064.017l2.666.533a.524.524 0 00.403-.08l-.002.001 1.214-.809a14.974 14.974 0 011.567 2.08l.037.063-2.623.874-2.84-.473-.938-1.408a.535.535 0 00-.441-.237h-3.2c-.147 0-.28.06-.377.156l-1.6 1.6a.53.53 0 00-.15.455v-.003l.533 3.733c.028.188.15.341.316.413l.003.001 3.733 1.6a.527.527 0 00.342.026l-.004.001 1.904-.476 1.164.777v1.854c0 .085.02.164.055.235l-.001-.003 2.08 4.153v2.007c0 .147.06.28.156.377l1.116 1.116c-4.947 6.594-14.303 7.929-20.898 2.982z"/></symbol><symbol id="icon-world-2" viewBox="0 0 32 32"><path d="M16 0C7.164 0 0 7.164 0 16s7.164 16 16 16 16-7.164 16-16C31.99 7.168 24.832.01 16 0zm0 30.933C7.753 30.933 1.067 24.247 1.067 16S7.753 1.067 16 1.067 30.933 7.753 30.933 16c-.009 8.243-6.69 14.924-14.933 14.933z"/><path d="M16 2.667C8.636 2.667 2.667 8.637 2.667 16S8.637 29.333 16 29.333 29.333 23.363 29.333 16C29.325 8.64 23.36 2.675 16 2.667zm0 25.6C9.225 28.267 3.733 22.775 3.733 16S9.225 3.733 16 3.733 28.267 9.225 28.267 16C28.259 22.772 22.772 28.259 16 28.267z"/><path d="M23.855 8.145a.533.533 0 00-.643-.085l.003-.001-9.522 5.434c-.006.004-.008.01-.014.014a1.534 1.534 0 00-.171.171c-.003.006-.01.009-.013.014l-5.436 9.522a.533.533 0 00.086.641.535.535 0 00.644.085l-.003.001 9.52-5.434c.006-.004.008-.01.014-.014.061-.052.118-.109.171-.171.003-.006.01-.009.013-.014l5.436-9.52a.532.532 0 00-.086-.644zM9.954 22.046l4.12-7.217 3.099 3.096zm7.971-4.873l-3.093-3.094 7.216-4.121zM7.467 15.467H5.334a.533.533 0 100 1.066h2.133a.533.533 0 100-1.066zm19.2 0h-2.133a.533.533 0 100 1.066h2.133a.533.533 0 100-1.066zM16 8a.533.533 0 00.533-.533V5.334a.533.533 0 10-1.066 0v2.133c0 .295.239.533.533.533zm0 16a.533.533 0 00-.533.533v2.133a.533.533 0 101.066 0v-2.133A.533.533 0 0016 24z"/></symbol></defs></svg>