<svg aria-hidden="true" style="position: absolute; width: 0; height: 0; overflow: hidden;" version="1.1" xmlns="http://www.w3.org/2000/svg" xmlns:xlink="http://www.w3.org/1999/xlink">
<defs>
<symbol id="icon-button" viewBox="0 0 32 32">
<title>button</title>
<path fill="#faf298" style="fill: var(--color1, #faf298)" d="M9.159 10.695l6.319 4.359c0.12 0.080 0.24 0.2 0.32 0.32 0.36 0.52 0.24 1.24-0.28 1.6l-6.359 4.359c-1 0.68-6.239 4.559-6.999 4.559-0.64 0-1.16-0.52-1.16-1.16v-17.437c0-0.24 0.080-0.44 0.2-0.64 0.36-0.52 1.080-0.64 1.6-0.28l6.359 4.319z"></path>
<path fill="#faf298" style="fill: var(--color1, #faf298)" d="M24.156 10.695l6.319 4.359c0.12 0.080 0.24 0.2 0.32 0.32 0.36 0.52 0.24 1.24-0.28 1.6l-6.359 4.359-6.239 4.319c-0.2 0.16-0.44 0.24-0.72 0.24-0.64 0-1.16-0.52-1.16-1.16v-17.437c0-0.24 0.080-0.44 0.2-0.64 0.36-0.52 1.080-0.64 1.6-0.28l6.319 4.319z"></path>
<path fill="#5f717f" style="fill: var(--color2, #5f717f)" d="M31.595 14.774c-0.080-0.12-0.16-0.24-0.28-0.32s-0.2-0.2-0.32-0.28l-6.239-4.319-6.359-4.359c-0.48-0.36-1.080-0.44-1.64-0.36s-1.040 0.4-1.4 0.92c-0.12 0.2-0.24 0.4-0.28 0.6-0.040 0.16-0.080 0.32-0.080 0.48v6.399l-5.279-3.639-6.319-4.399c-0.48-0.36-1.080-0.44-1.64-0.36s-1.040 0.4-1.4 0.88c-0.12 0.2-0.24 0.4-0.28 0.6-0.040 0.16-0.080 0.32-0.080 0.48v17.637c0 0.56 0.2 1.080 0.56 1.44l0.080 0.080c0.4 0.4 0.92 0.64 1.52 0.64 0.92 0 4.679-2.68 6.639-4.079 0.4-0.28 0.72-0.52 0.92-0.68l5.279-3.639v6.239c0 0.6 0.24 1.16 0.64 1.52 0.4 0.4 0.92 0.64 1.52 0.64 0.24 0 0.48-0.040 0.72-0.12s0.44-0.2 0.6-0.32l6.239-4.279 6.319-4.359c0.48-0.36 0.8-0.84 0.92-1.4s0-1.16-0.36-1.64zM14.878 16.094l-6.319 4.399c-0.16 0.12-0.52 0.36-0.96 0.68-1.76 1.28-5.159 3.719-5.439 3.719-0.040 0-0.080 0-0.080-0.040v-17.597s0-0.040 0.040-0.040c0 0 0.040-0.040 0.080-0.040h0.080c0.040 0.040 0.080 0.040 0.080 0.040l6.239 4.319 6.319 4.359c0 0.040 0.040 0.080 0 0.080 0 0.080 0 0.12-0.040 0.12zM29.915 16.094l-6.319 4.399-6.279 4.279c-0.040 0-0.040 0.040-0.080 0.040h-0.080c-0.040 0-0.080 0-0.080-0.040-0.040-0.040-0.040-0.040-0.040-0.080v-17.477c0-0.040 0.040-0.040 0.080-0.040h0.080l6.399 4.359 6.319 4.359c0 0.040 0.040 0.040 0 0.080 0.040 0.080 0 0.12 0 0.12z"></path>
</symbol>
<symbol id="icon-arrow" viewBox="0 0 32 32">
<title>arrow</title>
<path d="M12.234 22.389c-0.407-0.305-0.977-0.224-1.283 0.183-1.527 2.023-3.855 3.183-6.387 3.183h-2.525c-0.509 0-0.916 0.407-0.916 0.916s0.407 0.916 0.916 0.916h2.532c1.568 0 3.068-0.36 4.452-1.066 1.323-0.672 2.498-1.656 3.394-2.851 0.299-0.4 0.224-0.977-0.183-1.283zM14.82 9.507c0.17 0.129 0.367 0.19 0.563 0.19 0.271 0 0.543-0.122 0.726-0.353 1.527-1.968 3.828-3.095 6.312-3.095h5.328l-2.844 2.844c-0.36 0.36-0.36 0.937 0 1.296 0.176 0.176 0.414 0.271 0.645 0.271s0.468-0.088 0.645-0.271l4.412-4.412c0.36-0.36 0.36-0.937 0-1.296l-4.412-4.412c-0.36-0.36-0.937-0.36-1.296 0s-0.36 0.937 0 1.296l2.844 2.844h-5.328c-3.054 0-5.884 1.385-7.765 3.808-0.299 0.407-0.231 0.977 0.17 1.29z"></path>
<path d="M26.202 21.616c-0.36-0.36-0.937-0.36-1.296 0s-0.36 0.937 0 1.296l2.844 2.844h-5.328c-4.405 0-7.989-3.584-7.989-7.989v-3.529c0-5.416-4.405-9.821-9.821-9.821h-2.532c-0.509 0-0.916 0.407-0.916 0.916s0.407 0.916 0.916 0.916h2.532c4.405 0 7.989 3.584 7.989 7.989v3.529c0 5.416 4.405 9.821 9.821 9.821h5.328l-2.844 2.844c-0.36 0.36-0.36 0.937 0 1.296 0.176 0.176 0.414 0.271 0.645 0.271s0.468-0.088 0.645-0.271l4.412-4.412c0.36-0.36 0.36-0.937 0-1.296l-4.405-4.405z"></path>
</symbol>
<symbol id="icon-call" viewBox="0 0 32 32">
<title>call</title>
<path d="M29.432 21.004c-1.959 0-3.883-0.306-5.706-0.909-0.909-0.31-1.944-0.069-2.537 0.535l-3.598 2.716c-4.173-2.227-6.743-4.797-8.94-8.938l2.636-3.504c0.685-0.684 0.931-1.683 0.636-2.621-0.605-1.832-0.912-3.755-0.912-5.715 0-1.416-1.152-2.568-2.568-2.568h-5.877c-1.416 0-2.568 1.152-2.568 2.568 0 16.229 13.203 29.432 29.432 29.432 1.416 0 2.568-1.152 2.568-2.568v-5.86c-0-1.416-1.152-2.568-2.568-2.568zM30.222 29.432c0 0.436-0.354 0.79-0.79 0.79-15.249 0-27.654-12.405-27.654-27.654 0-0.436 0.354-0.79 0.79-0.79h5.877c0.436 0 0.79 0.354 0.79 0.79 0 2.15 0.338 4.26 0.998 6.26 0.092 0.295 0.017 0.601-0.281 0.912l-3.056 4.047c-0.112 0.147-0.18 0.334-0.18 0.536 0 0.147 0.036 0.285 0.099 0.407l-0.002-0.005c2.494 4.902 5.524 7.932 10.461 10.462 0.3 0.157 0.668 0.124 0.941-0.082l4.14-3.136c0.142-0.141 0.338-0.229 0.554-0.229 0.090 0 0.177 0.015 0.257 0.043l-0.006-0.002c2.013 0.665 4.123 1.002 6.273 1.002 0.436 0 0.79 0.354 0.79 0.79v5.86z"></path>
</symbol>
<symbol id="icon-cart" viewBox="0 0 32 32">
<title>cart</title>
<path d="M10.31 20.688h0.002c0.001 0 0.002-0 0.004-0h16.997c0.426-0 0.786-0.284 0.9-0.673l0.002-0.007 3.75-13.125c0.023-0.077 0.036-0.166 0.036-0.258 0-0.213-0.071-0.409-0.191-0.567l0.002 0.002c-0.173-0.228-0.444-0.373-0.749-0.373h-22.915l-0.67-3.016c-0.096-0.423-0.47-0.734-0.915-0.734h-5.625c-0.518 0-0.938 0.42-0.938 0.938s0.42 0.938 0.938 0.938h4.873c0.119 0.534 3.207 14.432 3.385 15.232-0.996 0.433-1.695 1.427-1.695 2.581 0 1.551 1.262 2.813 2.813 2.813h17c0.518 0 0.938-0.42 0.938-0.938s-0.42-0.938-0.938-0.938h-17c-0.517 0-0.938-0.421-0.938-0.938s0.419-0.936 0.935-0.937zM29.82 7.563l-3.214 11.25h-15.541l-2.5-11.25zM9.375 27.25c0 1.551 1.262 2.813 2.813 2.813s2.813-1.262 2.813-2.813-1.262-2.813-2.813-2.813-2.813 1.262-2.813 2.813zM12.188 26.313c0.517 0 0.938 0.421 0.938 0.938s-0.421 0.938-0.938 0.938-0.938-0.421-0.938-0.938 0.421-0.938 0.938-0.938zM22.625 27.25c0 1.551 1.262 2.813 2.813 2.813s2.813-1.262 2.813-2.813-1.262-2.813-2.813-2.813-2.813 1.262-2.813 2.813zM25.438 26.313c0.517 0 0.938 0.421 0.938 0.938s-0.421 0.938-0.938 0.938-0.938-0.421-0.938-0.938 0.421-0.938 0.938-0.938z"></path>
</symbol>
<symbol id="icon-email" viewBox="0 0 32 32">
<title>email</title>
<path d="M29.188 3.813h-26.375c-1.549 0-2.813 1.262-2.813 2.813v18.75c0 1.545 1.258 2.813 2.813 2.813h26.375c1.545 0 2.813-1.258 2.813-2.813v-18.75c0-1.545-1.258-2.813-2.813-2.813zM28.799 5.688l-12.739 12.74-12.85-12.74h25.589zM1.875 24.987v-17.982l9.030 8.953-9.030 9.030zM3.201 26.313l9.036-9.036 3.166 3.139c0.367 0.363 0.958 0.362 1.323-0.003l3.087-3.087 8.987 8.987h-25.598zM30.125 24.987l-8.987-8.987 8.987-8.987v17.973z"></path>
</symbol>
<symbol id="icon-like" viewBox="0 0 32 32">
<title>like</title>
<path d="M16 30.22c-0.456 0-0.895-0.165-1.237-0.465-1.293-1.13-2.539-2.193-3.639-3.13l-0.006-0.005c-3.224-2.747-6.008-5.12-7.945-7.457-2.165-2.613-3.174-5.090-3.174-7.796 0-2.629 0.902-5.055 2.539-6.831 1.657-1.797 3.929-2.786 6.401-2.786 1.847 0 3.539 0.584 5.028 1.736 0.751 0.581 1.433 1.293 2.033 2.122 0.6-0.83 1.281-1.541 2.033-2.123 1.489-1.152 3.181-1.736 5.028-1.736 2.471 0 4.744 0.99 6.401 2.786 1.637 1.776 2.538 4.201 2.538 6.831 0 2.706-1.008 5.184-3.174 7.796-1.937 2.337-4.721 4.71-7.944 7.457-1.102 0.939-2.35 2.002-3.645 3.136-0.328 0.288-0.762 0.464-1.236 0.464-0 0-0 0-0.001 0h0zM8.939 3.624c-1.942 0-3.725 0.775-5.023 2.182-1.317 1.428-2.042 3.403-2.042 5.56 0 2.276 0.846 4.312 2.743 6.6 1.833 2.212 4.56 4.536 7.717 7.227l0.006 0.005c1.104 0.941 2.355 2.007 3.657 3.146 1.31-1.141 2.563-2.209 3.669-3.151 3.157-2.691 5.884-5.014 7.717-7.226 1.896-2.289 2.742-4.324 2.742-6.6 0-2.157-0.725-4.132-2.042-5.56-1.297-1.407-3.081-2.182-5.023-2.182-1.422 0-2.728 0.452-3.881 1.344-1.028 0.795-1.743 1.8-2.163 2.503-0.216 0.362-0.596 0.577-1.016 0.577s-0.801-0.216-1.016-0.577c-0.419-0.703-1.135-1.708-2.163-2.503-1.153-0.892-2.459-1.344-3.881-1.344z"></path>
</symbol>
<symbol id="icon-moneyback" viewBox="0 0 32 32">
<title>moneyback</title>
<path d="M28.118 6.479l-12.027-6.409c-0.081-0.044-0.178-0.070-0.282-0.070-0.106 0-0.205 0.027-0.291 0.075l0.003-0.002-11.694 6.408c-0.187 0.104-0.311 0.3-0.311 0.525 0 0 0 0 0 0v0 8.371c0.007 6.881 4.084 13.107 10.389 15.864l1.623 0.707c0.070 0.032 0.153 0.050 0.239 0.050s0.167-0.018 0.241-0.051l-0.004 0.002 1.829-0.79c6.422-2.697 10.6-8.983 10.601-15.948v-8.205c0-0 0-0 0-0 0-0.228-0.127-0.426-0.314-0.527l-0.003-0.002zM27.237 15.213c-0.001 6.485-3.892 12.337-9.872 14.846l-0.004 0.002-1.593 0.688-1.384-0.604c-5.869-2.566-9.664-8.36-9.671-14.766v-8.017l11.1-6.083 11.424 6.088z"></path>
<path d="M11.395 14.991c-0.111-0.129-0.273-0.21-0.455-0.21-0.149 0-0.285 0.054-0.39 0.144l0.001-0.001c-0.129 0.11-0.21 0.273-0.21 0.455 0 0.149 0.054 0.285 0.144 0.39l-0.001-0.001 3.163 3.704c0.11 0.129 0.273 0.21 0.455 0.21 0.144 0 0.276-0.051 0.379-0.135l-0.001 0.001 7.366-5.993c0.135-0.111 0.221-0.278 0.221-0.464 0-0.331-0.268-0.599-0.599-0.599-0.144 0-0.276 0.051-0.379 0.135l0.001-0.001-6.913 5.623z"></path>
</symbol>
<symbol id="icon-settings" viewBox="0 0 32 32">
<title>settings</title>
<path d="M17.004 32h-2.008c-1.624 0-2.946-1.322-2.946-2.946v-0.679c-0.78-0.252-1.444-0.534-2.077-0.867l0.071 0.034-0.482 0.482c-1.166 1.168-3.034 1.133-4.167-0l-1.419-1.419c-1.134-1.133-1.167-3 0-4.167l0.481-0.481c-0.299-0.562-0.581-1.226-0.807-1.915l-0.026-0.091h-0.679c-1.624 0-2.946-1.322-2.946-2.946v-2.008c0-1.624 1.322-2.946 2.946-2.946h0.679c0.252-0.78 0.534-1.444 0.867-2.077l-0.034 0.071-0.482-0.481c-1.167-1.165-1.134-3.033 0-4.167l1.42-1.42c1.135-1.136 3.003-1.165 4.167 0l0.481 0.481c0.562-0.299 1.226-0.581 1.915-0.807l0.091-0.026v-0.679c0-1.624 1.322-2.946 2.946-2.946h2.008c1.624 0 2.946 1.321 2.946 2.946v0.679c0.78 0.252 1.444 0.534 2.077 0.867l-0.071-0.034 0.482-0.482c1.166-1.168 3.034-1.133 4.167 0l1.419 1.419c1.134 1.133 1.167 3.001-0 4.167l-0.481 0.481c0.299 0.562 0.581 1.226 0.807 1.915l0.026 0.091h0.679c1.624 0 2.946 1.322 2.946 2.946v2.008c0 1.624-1.322 2.946-2.946 2.946h-0.679c-0.252 0.78-0.534 1.444-0.867 2.077l0.034-0.071 0.482 0.482c1.167 1.165 1.134 3.033-0 4.167l-1.42 1.419c-1.135 1.137-3.003 1.165-4.166-0l-0.481-0.481c-0.562 0.299-1.226 0.581-1.915 0.807l-0.091 0.026v0.679c0 1.624-1.322 2.946-2.946 2.946zM10.357 25.573c0.824 0.497 1.777 0.904 2.787 1.172l0.077 0.017c0.408 0.108 0.703 0.473 0.703 0.908 0 0 0 0 0 0v0 1.384c0 0.59 0.48 1.071 1.071 1.071h2.008c0.59 0 1.071-0.48 1.071-1.071v-1.384c0 0 0-0 0-0 0-0.434 0.296-0.8 0.697-0.906l0.007-0.001c1.087-0.285 2.040-0.692 2.915-1.217l-0.050 0.028c0.136-0.082 0.301-0.131 0.477-0.131 0.259 0 0.493 0.105 0.663 0.275l0.98 0.981c0.423 0.423 1.102 0.413 1.514 0l1.42-1.42c0.411-0.411 0.425-1.090 0-1.514l-0.981-0.981c-0.17-0.17-0.275-0.404-0.275-0.663 0-0.176 0.049-0.341 0.133-0.481l-0.002 0.004c0.497-0.824 0.904-1.777 1.172-2.787l0.017-0.077c0.108-0.408 0.473-0.703 0.908-0.703 0 0 0 0 0 0h1.384c0.59 0 1.071-0.48 1.071-1.071v-2.008c0-0.59-0.48-1.071-1.071-1.071h-1.384c0 0 0 0 0 0-0.434 0-0.8-0.296-0.906-0.697l-0.001-0.007c-0.285-1.087-0.692-2.040-1.217-2.915l0.028 0.050c-0.082-0.136-0.131-0.301-0.131-0.477 0-0.259 0.105-0.493 0.275-0.663l0.981-0.981c0.424-0.423 0.413-1.102 0-1.514l-1.42-1.42c-0.412-0.412-1.091-0.424-1.514-0l-0.981 0.981c-0.17 0.17-0.404 0.275-0.663 0.275-0.176 0-0.341-0.049-0.482-0.133l0.004 0.002c-0.824-0.497-1.777-0.904-2.787-1.172l-0.077-0.017c-0.408-0.108-0.703-0.473-0.703-0.908 0 0 0-0 0-0v0-1.384c0-0.59-0.48-1.071-1.071-1.071h-2.008c-0.59 0-1.071 0.48-1.071 1.071v1.384c0 0 0 0 0 0 0 0.434-0.296 0.8-0.697 0.906l-0.007 0.001c-1.087 0.285-2.040 0.692-2.915 1.217l0.050-0.028c-0.136 0.082-0.301 0.131-0.477 0.131-0.259 0-0.493-0.105-0.663-0.275l-0.98-0.981c-0.423-0.423-1.102-0.413-1.514-0l-1.42 1.42c-0.411 0.411-0.425 1.090-0 1.514l0.981 0.981c0.17 0.17 0.275 0.404 0.275 0.663 0 0.176-0.048 0.341-0.133 0.481l0.002-0.004c-0.497 0.824-0.904 1.777-1.172 2.787l-0.017 0.077c-0.108 0.408-0.473 0.703-0.908 0.703 0 0 0 0 0 0h-1.384c-0.59 0-1.071 0.48-1.071 1.071v2.008c0 0.59 0.48 1.071 1.071 1.071h1.384c0 0 0 0 0 0 0.434 0 0.8 0.296 0.906 0.697l0.001 0.007c0.285 1.087 0.692 2.040 1.217 2.915l-0.028-0.050c0.082 0.136 0.131 0.301 0.131 0.477 0 0.259-0.105 0.493-0.275 0.663l-0.981 0.981c-0.424 0.423-0.413 1.102-0 1.514l1.42 1.42c0.412 0.412 1.091 0.424 1.514 0l0.981-0.981c0.223-0.223 0.687-0.412 1.14-0.144z"></path>
<path d="M16 22.962c-3.839 0-6.963-3.123-6.963-6.963s3.123-6.963 6.963-6.963 6.962 3.123 6.962 6.963-3.123 6.963-6.963 6.963zM16 10.912c-2.805 0-5.088 2.282-5.088 5.088s2.282 5.087 5.088 5.087 5.087-2.282 5.087-5.088-2.282-5.088-5.088-5.088z"></path>
</symbol>
<symbol id="icon-time" viewBox="0 0 32 32">
<title>time</title>
<path d="M16 0c-8.822 0-16 7.178-16 16s7.178 16 16 16 16-7.178 16-16-7.178-16-16-16zM16 30c-7.72 0-14-6.28-14-14s6.28-14 14-14 14 6.28 14 14-6.28 14-14 14z"></path>
<path d="M17 6h-2v10.414l6.293 6.293 1.414-1.414-5.707-5.707z"></path>
</symbol>
<symbol id="icon-world-1" viewBox="0 0 32 32">
<title>world-1</title>
<path d="M16.006 0.003c-6.402-0.001-12.188 3.815-14.708 9.7l-0.199 0.066 0.077 0.232c-3.318 8.183 0.626 17.506 8.809 20.823 1.777 0.741 3.842 1.172 6.007 1.172 0.003 0 0.006 0 0.009 0h-0c8.835 0.001 15.998-7.16 15.999-15.994s-7.16-15.998-15.994-15.999zM28.553 24.065l-0.821-0.821v-1.912c0-0.002 0-0.004 0-0.006 0-0.085-0.020-0.164-0.055-0.235l0.001 0.003-2.080-4.153v-2.007c0-0 0-0 0-0 0-0.184-0.093-0.347-0.235-0.442l-0.002-0.001-1.6-1.066c-0.083-0.056-0.186-0.090-0.296-0.090-0.046 0-0.091 0.006-0.134 0.017l0.004-0.001-1.959 0.489-3.291-1.412-0.453-3.172 1.255-1.254h2.693l0.906 1.362c0.081 0.12 0.207 0.204 0.353 0.229l0.003 0 3.199 0.533c0.026 0.005 0.057 0.007 0.087 0.007 0.060 0 0.118-0.010 0.172-0.029l-0.004 0.001 2.947-0.982c2.471 4.743 2.207 10.447-0.692 14.941zM26.354 5.258l-0.867 0.578-2.417-0.484-1.568-0.522c-0.050-0.018-0.108-0.028-0.169-0.028-0.046 0-0.090 0.006-0.133 0.017l0.004-0.001-1.983 0.495-0.869-0.29 0.644-1.288h1.803c0 0 0 0 0.001 0 0.087 0 0.169-0.021 0.241-0.057l-0.003 0.001 1.845-0.922c1.327 0.701 2.469 1.533 3.475 2.504l-0.004-0.004zM10.161 2.26l1.28 0.853c0.059 0.040 0.13 0.069 0.205 0.082l0.003 0 2.584 0.431-0.252 0.754-1.346 0.45c-0.123 0.042-0.223 0.123-0.287 0.229l-0.001 0.002-1.531 2.552-2.46 1.476-3.626 0.518c-0.26 0.038-0.458 0.259-0.459 0.527v1.6c0 0.147 0.060 0.28 0.156 0.377l0.91 0.91v0.916l-2.218-1.479-0.805-2.414c1.562-3.509 4.323-6.249 7.75-7.746l0.097-0.038zM8.642 19.743l-2.41-0.483-0.896-1.787v-1.253l1.987-1.987 0.735 1.471c0.089 0.176 0.269 0.295 0.477 0.295 0 0 0 0 0 0h3.431l1.444 2.407c0.095 0.156 0.264 0.259 0.457 0.259h1.482l-0.373 1.87-2.019 2.019c-0.097 0.096-0.157 0.23-0.157 0.377v1.333l-1.92 1.44c-0.13 0.098-0.213 0.253-0.213 0.427v0 1.926l-0.663-0.22-0.936-2.342v-5.23c0-0 0-0 0-0 0-0.257-0.181-0.471-0.423-0.522l-0.003-0.001zM7.040 27.94c-5.028-3.772-7.154-10.289-5.318-16.3l0.443 1.329c0.039 0.115 0.112 0.209 0.208 0.274l0.002 0.001 2.658 1.772-0.606 0.607c-0.096 0.096-0.156 0.23-0.156 0.377v0 1.6c0 0 0 0 0 0.001 0 0.087 0.021 0.169 0.057 0.241l-0.001-0.003 1.066 2.133c0.074 0.145 0.209 0.251 0.37 0.284l0.003 0.001 2.24 0.447v4.895c0 0 0 0 0 0 0 0.071 0.014 0.139 0.039 0.201l-0.001-0.004 1.066 2.666c0.059 0.146 0.177 0.257 0.323 0.307l0.004 0.001 1.6 0.533c0.049 0.017 0.106 0.027 0.166 0.028h0c0.294 0 0.533-0.239 0.533-0.533v0-2.399l1.92-1.44c0.13-0.098 0.213-0.253 0.213-0.427v0-1.379l1.977-1.977c0.072-0.072 0.124-0.165 0.145-0.269l0.001-0.003 0.533-2.666c0.007-0.031 0.010-0.068 0.010-0.105 0-0.294-0.239-0.533-0.533-0.533h-1.831l-1.444-2.408c-0.095-0.156-0.264-0.259-0.457-0.259h-3.403l-0.916-1.838c-0.077-0.151-0.219-0.259-0.389-0.287l-0.003-0c-0.027-0.005-0.058-0.008-0.089-0.008-0.146 0-0.278 0.060-0.373 0.157l-0 0-0.692 0.689v-0.846c-0-0.147-0.060-0.28-0.156-0.377l-0.91-0.91v-0.917l3.275-0.468c0.075-0.011 0.142-0.036 0.201-0.072l-0.002 0.001 2.666-1.6c0.075-0.046 0.137-0.107 0.181-0.18l0.001-0.002 1.498-2.497 1.412-0.471c0.16-0.054 0.283-0.177 0.336-0.333l0.001-0.004 0.533-1.6c0.017-0.050 0.027-0.107 0.027-0.167 0-0.263-0.191-0.482-0.442-0.525l-0.003-0-3.086-0.515-0.542-0.362c1.376-0.464 2.961-0.731 4.608-0.731 2.036 0 3.977 0.409 5.745 1.149l-0.098-0.036-0.974 0.486h-2.007c-0.001 0-0.002 0-0.003 0-0.208 0-0.387 0.119-0.476 0.292l-0.001 0.003-1.066 2.133c-0.035 0.069-0.056 0.151-0.056 0.238 0 0.234 0.151 0.433 0.361 0.505l0.004 0.001 1.6 0.533c0.096 0.033 0.199 0.037 0.298 0.012l1.983-0.495 1.453 0.484c0.021 0.007 0.042 0.013 0.064 0.017l2.666 0.533c0.032 0.007 0.068 0.011 0.106 0.011 0.11 0 0.212-0.033 0.297-0.091l-0.002 0.001 1.214-0.809c0.573 0.636 1.102 1.336 1.567 2.080l0.037 0.063-2.623 0.874-2.84-0.473-0.938-1.408c-0.097-0.143-0.258-0.236-0.441-0.237h-3.2c-0.147 0-0.28 0.060-0.377 0.156l-1.6 1.6c-0.097 0.097-0.156 0.23-0.156 0.377 0 0.027 0.002 0.053 0.006 0.078l-0-0.003 0.533 3.733c0.028 0.188 0.15 0.341 0.316 0.413l0.003 0.001 3.733 1.6c0.062 0.027 0.134 0.043 0.209 0.043 0.046 0 0.091-0.006 0.133-0.017l-0.004 0.001 1.904-0.476 1.164 0.777v1.848c-0 0.002-0 0.004-0 0.006 0 0.085 0.020 0.164 0.055 0.235l-0.001-0.003 2.080 4.153v2.007c0 0.147 0.060 0.28 0.156 0.377l1.116 1.116c-4.947 6.594-14.303 7.929-20.898 2.982z"></path>
</symbol>
<symbol id="icon-world-2" viewBox="0 0 32 32">
<title>world-2</title>
<path d="M16 0c-8.836 0-16 7.164-16 16s7.164 16 16 16 16-7.164 16-16c-0.010-8.832-7.168-15.99-16-16zM16 30.933c-8.247 0-14.933-6.686-14.933-14.933s6.686-14.933 14.933-14.933 14.933 6.686 14.933 14.933c-0.009 8.243-6.69 14.924-14.933 14.933z"></path>
<path d="M16 2.667c-7.364 0-13.333 5.97-13.333 13.333s5.97 13.333 13.333 13.333 13.333-5.97 13.333-13.333c-0.008-7.36-5.973-13.325-13.333-13.333zM16 28.267c-6.775 0-12.267-5.492-12.267-12.267s5.492-12.267 12.267-12.267 12.267 5.492 12.267 12.267c-0.008 6.772-5.495 12.259-12.267 12.267z"></path>
<path d="M23.855 8.145c-0.096-0.096-0.23-0.156-0.377-0.156-0.097 0-0.188 0.026-0.266 0.071l0.003-0.001-9.522 5.434c-0.006 0.004-0.008 0.010-0.014 0.014-0.061 0.052-0.118 0.109-0.171 0.171-0.003 0.006-0.010 0.009-0.013 0.014l-5.436 9.522c-0.044 0.076-0.070 0.167-0.070 0.264 0 0.147 0.060 0.281 0.156 0.377v0c0.097 0.096 0.23 0.156 0.377 0.156 0.097 0 0.188-0.026 0.267-0.071l-0.003 0.001 9.52-5.434c0.006-0.004 0.008-0.010 0.014-0.014 0.061-0.052 0.118-0.109 0.171-0.171 0.003-0.006 0.010-0.009 0.013-0.014l5.436-9.52c0.045-0.076 0.071-0.168 0.071-0.266 0-0.148-0.060-0.281-0.157-0.378v0zM9.954 22.046l4.12-7.217 3.099 3.096zM17.925 17.173l-3.093-3.094 7.216-4.121zM7.467 15.467h-2.133c-0.295 0-0.533 0.239-0.533 0.533s0.239 0.533 0.533 0.533v0h2.133c0.295 0 0.533-0.239 0.533-0.533s-0.239-0.533-0.533-0.533v0zM26.667 15.467h-2.133c-0.295 0-0.533 0.239-0.533 0.533s0.239 0.533 0.533 0.533v0h2.133c0.295 0 0.533-0.239 0.533-0.533s-0.239-0.533-0.533-0.533v0zM16 8c0.295 0 0.533-0.239 0.533-0.533v0-2.133c0-0.295-0.239-0.533-0.533-0.533s-0.533 0.239-0.533 0.533v0 2.133c0 0.295 0.239 0.533 0.533 0.533v0zM16 24c-0.295 0-0.533 0.239-0.533 0.533v0 2.133c0 0.295 0.239 0.533 0.533 0.533s0.533-0.239 0.533-0.533v0-2.133c0-0.295-0.239-0.533-0.533-0.533v0z"></path>
</symbol>
</defs>
</svg>
